
<global>
</global>

<group>
ampeg_attack=0.002
ampeg_release=0.3
group_label=Group
loop_mode=loop_continuous

<region>
end=185317
hikey=A2
hivel=127
lokey=G#2
loop_end=146887
loop_start=58951
loop_xfade=10000
lovel=0
offset=18013
pitch_keycenter=G#2
sample=Fender_Stratocaster_Whole_Trill_FF_G#3.opus
volume=+9.45
</region>

<region>
end=182436
hikey=A4
hivel=127
lokey=G#4
loop_end=143989
loop_start=52702
loop_xfade=10000
lovel=0
offset=17924
pitch_keycenter=G#4
sample=Fender_Stratocaster_Whole_Trill_FF_G#5.opus
volume=+16.46
</region>

<region>
hikey=A5
hivel=127
lokey=G#5
loop_end=168881
loop_start=57370
loop_xfade=10000
lovel=0
offset=22486
pitch_keycenter=G#5
sample=Fender_Stratocaster_Whole_Trill_FF_G#6.opus
volume=+19.35
</region>

<region>
hikey=C#5
hivel=127
lokey=C5
loop_end=166226
loop_start=42975
loop_xfade=10000
lovel=0
offset=18755
pitch_keycenter=C5
sample=Fender_Stratocaster_Whole_Trill_FF_C6.opus
volume=+19.38
</region>

<region>
end=184723
hikey=F2
hivel=127
lokey=E2
loop_end=133698
loop_start=45099
loop_xfade=10000
lovel=0
offset=17447
pitch_keycenter=E2
sample=Fender_Stratocaster_Whole_Trill_FF_E3.opus
volume=+5.24
</region>

<region>
end=182726
hikey=F4
hivel=127
lokey=E4
loop_end=159242
loop_start=51680
loop_xfade=10000
lovel=0
offset=19167
pitch_keycenter=E4
sample=Fender_Stratocaster_Whole_Trill_FF_E5.opus
volume=+14.10
</region>

<region>
end=189679
hikey=B3
hivel=127
lokey=A#3
loop_end=151751
loop_start=64419
loop_xfade=10000
lovel=0
offset=17502
pitch_keycenter=A#3
sample=Fender_Stratocaster_Whole_Trill_FF_A#4.opus
volume=+13.22
</region>

<region>
hikey=G2
hivel=127
lokey=F#2
loop_end=163826
loop_start=40374
loop_xfade=10000
lovel=0
offset=18418
pitch_keycenter=F#2
sample=Fender_Stratocaster_Whole_Trill_FF_F#3.opus
volume=+8.01
</region>

<region>
end=176928
hikey=C#4
hivel=127
lokey=C4
loop_end=143606
loop_start=47560
loop_xfade=10000
lovel=0
offset=20168
sample=Fender_Stratocaster_Whole_Trill_FF_C5.opus
volume=+9.39
</region>

<region>
end=194855
hikey=A3
hivel=127
lokey=G#3
loop_end=155326
loop_start=42331
loop_xfade=10000
lovel=0
offset=16463
pitch_keycenter=G#3
sample=Fender_Stratocaster_Whole_Trill_FF_G#4.opus
volume=+16.20
</region>

<region>
end=186891
hikey=D#2
hivel=127
lokey=C2
loop_end=156744
loop_start=55231
loop_xfade=10000
lovel=0
offset=18576
pitch_keycenter=D2
sample=Fender_Stratocaster_Whole_Trill_FF_D3.opus
volume=+3.43
</region>

<region>
end=180137
hikey=F3
hivel=127
lokey=E3
loop_end=152806
loop_start=54893
loop_xfade=10000
lovel=0
offset=18388
pitch_keycenter=E3
sample=Fender_Stratocaster_Whole_Trill_FF_E4.opus
volume=+13.41
</region>

<region>
end=177874
hikey=C#6
hivel=127
lokey=C6
loop_end=143642
loop_start=40247
loop_xfade=10000
lovel=0
offset=17538
pitch_keycenter=C6
sample=Fender_Stratocaster_Whole_Trill_FF_C7.opus
volume=+17.30
</region>

<region>
end=188165
hikey=B5
hivel=127
lokey=A#5
loop_end=157667
loop_start=56202
loop_xfade=10000
lovel=0
offset=19283
pitch_keycenter=A#5
sample=Fender_Stratocaster_Whole_Trill_FF_A#6.opus
volume=+19.12
</region>

<region>
hikey=F5
hivel=127
lokey=E5
loop_end=152806
loop_start=59975
loop_xfade=10000
lovel=0
offset=18406
pitch_keycenter=E5
sample=Fender_Stratocaster_Whole_Trill_FF_E6.opus
volume=+16.62
</region>

<region>
end=186133
hikey=G4
hivel=127
lokey=F#4
loop_end=151191
loop_start=58072
loop_xfade=10000
lovel=0
offset=17294
pitch_keycenter=F#4
sample=Fender_Stratocaster_Whole_Trill_FF_F#5.opus
volume=+14.66
</region>

<region>
end=189016
hikey=B2
hivel=127
lokey=A#2
loop_end=157169
loop_start=60239
loop_xfade=10000
lovel=0
offset=18531
pitch_keycenter=A#2
sample=Fender_Stratocaster_Whole_Trill_FF_A#3.opus
volume=+5.46
</region>

<region>
hikey=D#4
hivel=127
lokey=D4
loop_end=149703
loop_start=51905
loop_xfade=10000
lovel=0
offset=17476
pitch_keycenter=D4
sample=Fender_Stratocaster_Whole_Trill_FF_D5.opus
volume=+9.91
</region>

<region>
end=181636
hikey=D#5
hivel=127
lokey=D5
loop_end=159163
loop_start=67793
loop_xfade=10000
lovel=0
offset=16116
pitch_keycenter=D5
sample=Fender_Stratocaster_Whole_Trill_FF_D6.opus
volume=+19.04
</region>

<region>
hikey=G5
hivel=127
lokey=F#5
loop_end=162727
loop_start=52868
loop_xfade=10000
lovel=0
offset=17382
pitch_keycenter=F#5
sample=Fender_Stratocaster_Whole_Trill_FF_F#6.opus
volume=+17.50
</region>

<region>
hikey=B4
hivel=127
lokey=A#4
loop_end=161137
loop_start=69298
loop_xfade=10000
lovel=0
offset=18498
pitch_keycenter=A#4
sample=Fender_Stratocaster_Whole_Trill_FF_A#5.opus
volume=+15.62
</region>

<region>
end=184682
hikey=G3
hivel=127
lokey=F#3
loop_end=155631
loop_start=46921
loop_xfade=10000
lovel=0
offset=19494
pitch_keycenter=F#3
sample=Fender_Stratocaster_Whole_Trill_FF_F#4.opus
volume=+15.35
</region>

<region>
end=180819
hikey=D#3
hivel=127
lokey=D3
loop_end=148773
loop_start=51082
loop_xfade=10000
lovel=0
offset=18547
pitch_keycenter=D3
sample=Fender_Stratocaster_Whole_Trill_FF_D4.opus
volume=+11.16
</region>

<region>
end=183539
hikey=C#3
hivel=127
lokey=C3
loop_end=156539
loop_start=61523
loop_xfade=10000
lovel=0
offset=19317
pitch_keycenter=C3
sample=Fender_Stratocaster_Whole_Trill_FF_C4.opus
volume=+9.08
</region>
</group>